<?xml version="1.0" encoding="UTF-8" standalone="no"?>
<!-- Created with Inkscape (http://www.inkscape.org/) -->

<!-- Created by David Miller for personal use -->

<!-- ids used to tag parts of the turtle: head, hand, foot, q1, q2, q3, q4 -->

<svg
   xmlns:dc="http://purl.org/dc/elements/1.1/"
   xmlns:cc="http://creativecommons.org/ns#"
   xmlns:rdf="http://www.w3.org/1999/02/22-rdf-syntax-ns#"
   xmlns:svg="http://www.w3.org/2000/svg"
   xmlns="http://www.w3.org/2000/svg"
   xmlns:sodipodi="http://sodipodi.sourceforge.net/DTD/sodipodi-0.dtd"
   xmlns:inkscape="http://www.inkscape.org/namespaces/inkscape"
   width="180"
   height="180"
   id="svg2"
   version="1.1"
   inkscape:version="0.48.4 r9939"
   sodipodi:docname="vurtle2.svg">
  <defs
     id="defs4">
    <inkscape:perspective
       sodipodi:type="inkscape:persp3d"
       inkscape:vp_x="0 : 90 : 1"
       inkscape:vp_y="0 : 1000 : 0"
       inkscape:vp_z="180 : 90 : 1"
       inkscape:persp3d-origin="90 : 60 : 1"
       id="perspective2994" />
  </defs>
  <sodipodi:namedview
     id="base"
     pagecolor="#ffffff"
     bordercolor="#666666"
     borderopacity="1.0"
     inkscape:pageopacity="0.0"
     inkscape:pageshadow="2"
     inkscape:zoom="1.4142136"
     inkscape:cx="-26.857119"
     inkscape:cy="115.0731"
     inkscape:document-units="px"
     inkscape:current-layer="layer3"
     showgrid="false"
     inkscape:window-width="1920"
     inkscape:window-height="1018"
     inkscape:window-x="1358"
     inkscape:window-y="-8"
     inkscape:window-maximized="1"
     showguides="true"
     inkscape:guide-bbox="true" />
  <metadata
     id="metadata7">
    <rdf:RDF>
      <cc:Work
         rdf:about="">
        <dc:format>image/svg+xml</dc:format>
        <dc:type
           rdf:resource="http://purl.org/dc/dcmitype/StillImage" />
        <dc:title></dc:title>
      </cc:Work>
    </rdf:RDF>
  </metadata>
  <g
     inkscape:groupmode="layer"
     id="layer3"
     inkscape:label="scales">
    <path
       style="fill:#407000;fill-opacity:1;stroke:#000000;stroke-opacity:1;stroke-width:0.5;stroke-miterlimit:4;stroke-dasharray:none"
       d="m 12.015,160.01901 24.074012,0.044 -5.193297,-10.91472 -18.088517,1.54038 z"
       id="scale1"
       inkscape:connector-curvature="0"
       sodipodi:nodetypes="ccccc" />
    <path
       style="fill:#5e8b28;fill-opacity:1;stroke:#000000;stroke-opacity:1;stroke-width:0.5;stroke-miterlimit:4;stroke-dasharray:none"
       d="m 12.8125,150.8125 18.0625,-1.625 5.036612,-9.17299 L 31.625,133.125 19,134.1875 15.3125,141.5 z"
       id="scale2"
       inkscape:connector-curvature="0"
       sodipodi:nodetypes="ccccccc" />
    <path
       style="fill:#408228;fill-opacity:1;stroke:#000000;stroke-opacity:1;stroke-width:0.5;stroke-miterlimit:4;stroke-dasharray:none"
       d="m 18.870912,134.21483 12.772116,-1.06065 6.540738,-12.1976 -3.977476,-3.8007 -8.617863,7.77818 z"
       id="scale3"
       inkscape:connector-curvature="0"
       sodipodi:nodetypes="cccccc" />
    <path
       style="fill:#408228;fill-opacity:1;stroke:#000000;stroke-opacity:1;stroke-width:0.5;stroke-miterlimit:4;stroke-dasharray:none"
       d="m 30.807693,149.10429 5.281319,11.04675 14.523626,0.044 5.76544,-11.48687 -6.425605,-8.97824 -14.127528,0.26407 z"
       id="scale4"
       inkscape:connector-curvature="0"
       sodipodi:nodetypes="ccccccc" />
    <path
       style="fill:#407000;fill-opacity:1;stroke:#000000;stroke-opacity:1;stroke-width:0.5;stroke-miterlimit:4;stroke-dasharray:none"
       d="m 31.625,133.125 4.28125,6.9375 13.96875,-0.3125 9.1875,-9.4375 -7.03125,-9.40625 -14,0.125 z"
       id="scale5"
       inkscape:connector-curvature="0"
       sodipodi:nodetypes="ccccccc" />
    <path
       style="fill:#5e8b28;fill-opacity:1;stroke:#000000;stroke-opacity:1;stroke-width:0.5;stroke-miterlimit:4;stroke-dasharray:none"
       d="m 34.427261,117.42105 3.623922,3.7565 13.921165,-0.17677 6.14299,-6.67332 -3.535533,-7.02688 -10.297243,3.8007 z"
       id="scale6"
       inkscape:connector-curvature="0"
       sodipodi:nodetypes="ccccccc" />

    <path
       style="fill:#407000;fill-opacity:1;stroke:#000000;stroke-opacity:1;stroke-width:0.5;stroke-miterlimit:4;stroke-dasharray:none"
       d="m 50.436594,159.95301 26.846704,0.044 -6.249561,-9.02225 -14.69967,-2.33258 z"
       id="scale7"
       inkscape:connector-curvature="0"
       sodipodi:nodetypes="ccccc" />
    <path
       style="fill:#5e8b28;fill-opacity:1;stroke:#000000;stroke-opacity:1;stroke-width:0.5;stroke-miterlimit:4;stroke-dasharray:none"
       d="m 49.84375,139.75 6.46875,8.96875 14.71875,2.34375 5.03125,-8.59375 -5.792735,-11.09283 -11.253838,-1.04289 z"
       id="scale8"
       inkscape:connector-curvature="0"
       sodipodi:nodetypes="ccccccc" />
    <path
       style="fill:#408228;stroke:#000000;stroke-width:0.5;stroke-linecap:butt;stroke-linejoin:miter;stroke-opacity:1;fill-opacity:1;stroke-miterlimit:4;stroke-dasharray:none"
       d="m 51.928154,120.91239 7.115262,9.54594 11.22532,1.01647 4.817165,-9.104 -3.535534,-7.33624 -13.567611,-0.7071 z"
       id="scale9"
       inkscape:connector-curvature="0" />
    <path
       style="fill:#407000;fill-opacity:1;stroke:#000000;stroke-opacity:1;stroke-width:0.5;stroke-miterlimit:4;stroke-dasharray:none"
       d="m 54.491417,107.2122 3.535533,7.15945 13.656,0.7513 9.766912,-10.16466 -13.87697,-0.53033 z"
       id="scale10"
       inkscape:connector-curvature="0"
       sodipodi:nodetypes="cccccc" />
    <path
       style="fill:#408228;fill-opacity:1;stroke:#000000;stroke-opacity:1;stroke-width:0.5;stroke-miterlimit:4;stroke-dasharray:none"
       d="m 71.011732,150.97477 6.249561,9.2423 13.511373,-0.17605 0.792198,-9.33033 -3.960989,-8.36209 -11.574891,0.088 z"
       id="scale11"
       inkscape:connector-curvature="0"
       sodipodi:nodetypes="ccccccc" />
    <path
       style="fill:#407000;fill-opacity:1;stroke:#000000;stroke-opacity:1;stroke-width:0.5;stroke-miterlimit:4;stroke-dasharray:none"
       d="m 75.969785,142.47914 -5.789437,-11.13693 4.817165,-8.92722 12.153398,-2.34229 6.319766,9.8111 -5.922019,12.59535 z"
       id="scale12"
       inkscape:connector-curvature="0"
       sodipodi:nodetypes="ccccccc" />
    <path
       style="fill:#5e8b28;fill-opacity:1;stroke:#000000;stroke-opacity:1;stroke-width:0.5;stroke-miterlimit:4;stroke-dasharray:none"
       d="m 74.953319,122.50338 -3.402952,-7.38043 9.855301,-10.20885 7.999145,0.83969 7.910757,1.76777 -10.120465,12.72792 z"
       id="scale13"
       inkscape:connector-curvature="0"
       sodipodi:nodetypes="ccccccc" />
    <path
       style="fill:#407000;fill-opacity:1;stroke:#000000;stroke-opacity:1;stroke-width:0.5;stroke-miterlimit:4;stroke-dasharray:none"
       d="m 90.750661,160.03001 26.846709,0.044 -4.84121,-10.91472 -21.213301,1.54038 z"
       id="scale14"
       inkscape:connector-curvature="0"
       sodipodi:nodetypes="ccccc" />
    <path
       style="fill:#5e8b28;fill-opacity:1;stroke:#000000;stroke-opacity:1;stroke-width:0.5;stroke-miterlimit:4;stroke-dasharray:none"
       d="m 87.504464,142.34656 4.02167,8.48529 21.080616,-1.5468 2.03294,-9.41336 -8.48528,-10.51821 -12.727927,0.39774 z"
       id="scale15"
       inkscape:connector-curvature="0"
       sodipodi:nodetypes="ccccccc" />
    <path
       style="fill:#408228;stroke:#000000;stroke-width:0.5;stroke-linecap:butt;stroke-linejoin:miter;stroke-opacity:1;fill-opacity:1;stroke-miterlimit:4;stroke-dasharray:none"
       d="m 87.106716,120.11689 6.319767,9.85531 12.772117,-0.48614 8.17592,-6.67332 -4.72877,-11.09274 -12.330179,-4.33103 z"
       id="scale16"
       inkscape:connector-curvature="0" />
    <path
       style="fill:#408228;fill-opacity:1;stroke:#000000;stroke-opacity:1;stroke-width:0.5;stroke-miterlimit:4;stroke-dasharray:none"
       d="m 112.5581,149.17032 4.97324,10.73867 10.65067,-0.044 5.80945,-11.13478 -4.53314,-9.24231 -14.91972,0.3961 z"
       id="scale17"
       inkscape:connector-curvature="0"
       sodipodi:nodetypes="ccccccc" />
    <path
       style="fill:#407000;fill-opacity:1;stroke:#000000;stroke-opacity:1;stroke-width:0.5;stroke-miterlimit:4;stroke-dasharray:none"
       d="m 114.59375,139.96875 -8.53125,-10.59375 8.21875,-6.59375 14.34375,0.0625 7.25,6.6875 -6.40625,10.0625 z"
       id="scale18"
       inkscape:connector-curvature="0"
       sodipodi:nodetypes="ccccccc" />
    <path
       style="fill:#5e8b28;stroke:#000000;stroke-width:0.5;stroke-linecap:butt;stroke-linejoin:miter;stroke-opacity:1;fill-opacity:1;stroke-miterlimit:4;stroke-dasharray:none"
       d="m 109.60155,111.85258 4.72878,11.09274 14.4073,-0.0442 -7.99915,-5.87783 z"
       id="scale19"
       inkscape:connector-curvature="0" />
    <path
       style="fill:#407000;fill-opacity:1;stroke:#000000;stroke-opacity:1;stroke-width:0.5;stroke-miterlimit:4;stroke-dasharray:none"
       d="m 128.07198,159.96401 19.80495,-0.088 -0.36307,-8.10121 -2.58566,-7.91879 -10.95874,4.7972 z"
       id="scale20"
       inkscape:connector-curvature="0"
       sodipodi:nodetypes="cccccc" />
    <path
       style="fill:#5e8b28;fill-opacity:1;stroke:#000000;stroke-opacity:1;stroke-width:0.5;stroke-miterlimit:4;stroke-dasharray:none"
       d="m 129.40054,139.51814 4.552,9.32497 10.96016,-4.90556 -3.8007,-7.95495 -5.3033,-6.45234 z"
       id="scale21"
       inkscape:connector-curvature="0"
       sodipodi:nodetypes="cccccc" />
  </g>
  <g
     inkscape:groupmode="layer"
     id="layer1"
     inkscape:label="back"
     transform="translate(0,80)">
    <path
       style="fill:none;fill-opacity:1;stroke:#000000;stroke-width:0.88803142000000002;stroke-miterlimit:4;stroke-opacity:1;stroke-dasharray:none"
       d="M 73.998756,24.544652 C 48.058507,24.157508 23.289279,40.071135 15.235764,61.813341 c -2.2781,5.880586 -3.324926,12.113095 -3.284629,18.322338 45.427387,0.01891 90.854755,-0.04018 136.282155,-0.02523 0.43361,-18.971243 -13.72924,-36.21617 -31.91014,-45.308592 -11.68519,-6.045071 -25.030226,-9.588381 -38.540603,-10.1365 -1.256464,-0.106386 -2.521446,-0.189596 -3.783791,-0.120708 z"
       id="path2991-1"
       inkscape:connector-curvature="0" />
    <path
       style="fill:#59d033;fill-opacity:1;stroke:#000000;stroke-width:0.80000001;stroke-miterlimit:4;stroke-opacity:1;stroke-dasharray:none"
       d="m 130.8384,80.154117 c -0.006,0.117205 -0.0284,0.233676 -0.0284,0.352112 0,4.51504 3.8486,8.179656 8.59029,8.179656 4.7417,0 8.59027,-3.664616 8.59027,-8.179656 0,-0.118436 -0.0233,-0.234907 -0.0284,-0.352112 l -17.12366,0 z"
       id="hand"
       inkscape:connector-curvature="0" />
    <path
       inkscape:connector-curvature="0"
       id="foot"
       d="m 11.908576,80.154232 c -0.0054,0.117205 -0.0284,0.233676 -0.0284,0.352112 0,4.51504 3.848578,8.179656 8.59027,8.179656 4.741695,0 8.590274,-3.664616 8.590274,-8.179656 0,-0.118436 -0.0232,-0.234907 -0.0284,-0.352112 l -17.123656,0 z"
       style="fill:#59d033;fill-opacity:1;stroke:#000000;stroke-width:0.80000001;stroke-miterlimit:4;stroke-opacity:1;stroke-dasharray:none" />
  </g>
  <g
     inkscape:groupmode="layer"
     id="layer2"
     inkscape:label="front"
     transform="translate(0,80)">
    <path
       style="fill:#59d033;fill-opacity:1;stroke:#000000;stroke-width:0.81225133;stroke-opacity:1"
       d="m 158.76082,63.765432 c -1.01768,-0.03998 -2.01274,0.231599 -2.99039,0.432569 -3.45385,0 -6.90769,0 -10.36154,0 1.808,5.117102 2.7092,10.551139 2.6476,15.978047 3.16006,0 6.32011,0 9.48017,0 3.7113,0.55791 7.71732,-1.467744 9.22562,-4.952864 1.42809,-3.075453 0.54073,-6.968091 -2.0085,-9.182816 -1.62097,-1.475756 -3.80562,-2.283696 -5.99296,-2.274936 z"
       id="head"
       inkscape:connector-curvature="0" />
    <path
       sodipodi:type="arc"
       style="fill:#000000;fill-opacity:1;stroke:none"
       id="path3849"
       sodipodi:cx="187.11813"
       sodipodi:cy="86.244194"
       sodipodi:rx="2.2097087"
       sodipodi:ry="2.2097087"
       d="m 189.32784,86.244194 c 0,1.220388 -0.98932,2.209709 -2.20971,2.209709 -1.22038,0 -2.20971,-0.989321 -2.20971,-2.209709 0,-1.220388 0.98933,-2.209709 2.20971,-2.209709 1.22039,0 2.20971,0.989321 2.20971,2.209709 z"
       transform="matrix(1.0086018,0,0,0.95782205,-27.547009,-13.804908)" />
  </g>
</svg>
